<?xml version="1.0" encoding="utf-8"?>
<svg width="79" height="82" viewBox="0 0 79 82" fill="none" xmlns="http://www.w3.org/2000/svg">
  <path d="M50.3376 71.9824C54.1883 71.7797 57.2283 68.7397 57.2283 64.889V53.081C57.2283 47.2037 45.6763 44.1637 39.799 44.1637C33.9216 44.1637 22.3696 47.001 22.3696 53.081V64.889C22.5723 68.7397 25.6123 71.7797 29.2603 71.9824" stroke="#D71638" stroke-miterlimit="10" />
  <path d="M72.4 74.6175C75.8453 74.6175 78.2907 72.9962 78.2907 69.9562V59.5668C78.2907 54.2975 68.1573 51.6628 62.6853 51.6628C62.0773 51.6628 61.4693 51.6628 60.8613 51.6628" stroke="#D71638" stroke-miterlimit="10" />
  <path d="M39.798 39.2997C44.2567 39.2997 47.2967 36.8677 47.2967 33.2197V30.3823C47.2967 26.937 44.2567 24.505 39.798 24.505C35.3393 24.505 32.2993 26.937 32.2993 30.3823V33.2197C32.2993 36.8677 35.542 39.2997 39.798 39.2997Z" stroke="#D71638" stroke-miterlimit="10" />
  <path d="M72.2261 81.9128V61.3901" stroke="#D71638" stroke-miterlimit="10" />
  <path d="M49.7285 81.914V56.5273" stroke="#D71638" stroke-miterlimit="10" />
  <path d="M29.8657 56.5273V81.914" stroke="#D71638" stroke-miterlimit="10" />
  <path d="M64.7262 44.1641C69.1849 44.1641 72.2249 41.7321 72.2249 38.2867V35.2467C72.2249 31.8014 69.1849 29.3694 64.7262 29.3694C60.2675 29.3694 57.2275 31.8014 57.2275 35.2467V38.2867C57.2275 41.9347 60.4702 44.1641 64.7262 44.1641Z" stroke="#D71638" stroke-miterlimit="10" />
  <path d="M7.19438 74.6175C3.95171 74.6175 1.30371 72.9962 1.30371 69.9562V59.5668C1.30371 54.2975 11.437 51.6628 17.1117 51.6628C17.5171 51.6628 18.3277 51.6628 18.7331 51.6628" stroke="#D71638" stroke-miterlimit="10" />
  <path d="M7.37109 81.9128V61.3901" stroke="#D71638" stroke-miterlimit="10" />
  <path d="M14.8698 44.1641C10.4111 44.1641 7.37109 41.7321 7.37109 38.2867V35.2467C7.37109 31.8014 10.4111 29.3694 14.8698 29.3694C19.3284 29.3694 22.3684 31.8014 22.3684 35.2467V38.2867C22.3684 41.9347 19.1258 44.1641 14.8698 44.1641Z" stroke="#D71638" stroke-miterlimit="10" />
  <path d="M39.2485 1.51392L42.1801 7.44892L48.7285 8.39692L43.9885 13.0175L45.1038 19.542L39.2485 16.459L33.3931 19.542L34.5164 13.0175L29.7764 8.39692L36.3248 7.44892L39.2485 1.51392Z" stroke="#D71638" stroke-miterlimit="10" />
</svg>