<?xml version="1.0" encoding="utf-8"?>
<svg width="71" height="85" viewBox="0 0 71 85" fill="none" xmlns="http://www.w3.org/2000/svg">
  <path d="M25.9253 0.256348L27.3612 4.92301" stroke="#D71638" stroke-miterlimit="8" />
  <path d="M10.1304 9.94873L13.1817 12.641" stroke="#D71638" stroke-miterlimit="8" />
  <path d="M0.976562 25.5639L5.82272 26.9998" stroke="#D71638" stroke-miterlimit="8" />
  <path d="M0.976562 43.6922L6.0022 42.2563" stroke="#D71638" stroke-miterlimit="8" />
  <path d="M10.6689 59.6666L13.3613 56.0768" stroke="#D71638" stroke-miterlimit="8" />
  <path d="M61.2842 58.9487L57.3354 55.718" stroke="#D71638" stroke-miterlimit="8" />
  <path d="M69.8999 42.9743L65.0537 42.0769" stroke="#D71638" stroke-miterlimit="8" />
  <path d="M69.8999 24.846L65.0537 25.9229" stroke="#D71638" stroke-miterlimit="8" />
  <path d="M60.2071 9.05127L56.7969 12.282" stroke="#D71638" stroke-miterlimit="8" />
  <path d="M44.2332 0.256348L43.1562 4.38455" stroke="#D71638" stroke-miterlimit="8" />
  <path d="M32.028 47.2819C26.4639 45.846 23.2331 39.9229 23.7716 36.3332C25.2075 27.1793 34.3614 25.3845 37.5921 18.3845C43.6947 21.6152 48.1819 29.3332 46.387 37.0511C44.9511 42.0768 38.669 44.7691 36.1562 45.6665" stroke="#D71638" stroke-miterlimit="8" />
  <path d="M34.0022 54.8204C28.7971 44.4102 34.5407 35.7948 36.6945 28.0768" stroke="#D71638" stroke-miterlimit="8" />
  <path d="M44.2331 80.1282H40.2844L36.8741 84.2564H32.9254L28.9767 80.1282H25.5664" stroke="#D71638" stroke-miterlimit="8" />
  <path d="M21.7969 67.7435H47.643" stroke="#D71638" stroke-miterlimit="8" />
  <path d="M21.7969 74.923H47.643" stroke="#D71638" stroke-miterlimit="8" />
  <path d="M46.0281 63.6153V60.0255C46.0281 56.4358 48.0024 52.3076 50.5153 49.6153C54.6435 45.487 56.9768 39.205 56.9768 32.7435C56.9768 20.7178 47.2845 11.0255 35.0794 11.0255C22.8742 11.0255 13.0024 20.7178 13.0024 32.7435C13.0024 39.0255 15.1563 45.487 19.464 49.6153C22.1563 52.3076 23.9512 56.4358 23.9512 60.0255V63.6153" stroke="#D71638" stroke-miterlimit="8" />
</svg>