<?xml version="1.0" encoding="utf-8"?>
<svg width="77" height="85" viewBox="0 0 77 85" fill="none" xmlns="http://www.w3.org/2000/svg">
  <g clip-path="url(#clip0)">
    <path d="M30.4011 72.3125V65.3601C30.4011 60.2973 21.2381 57.6232 15.6761 57.6232C10.1141 57.6232 1.05811 60.2259 1.05811 65.3601V72.2769" stroke="#D71638" stroke-miterlimit="10" />
    <path d="M15.7475 56.411C19.7764 56.518 23.0921 53.5587 22.9495 49.9221V46.6419C22.9495 37.9068 8.54545 37.9068 8.54545 46.6419V49.9221C8.40284 53.5944 11.7186 56.5536 15.7475 56.411Z" stroke="#D71638" stroke-miterlimit="10" />
    <path d="M76.5368 72.0986V65.1461C76.5368 60.0833 67.3738 57.4093 61.8118 57.4093C56.2499 57.4093 47.1938 60.012 47.1938 65.1461V72.0629" stroke="#D71638" stroke-miterlimit="10" />
    <path d="M61.8477 56.2328C65.8765 56.3397 69.1923 53.3805 69.0497 49.7438V46.4637C69.0497 37.7285 54.6456 37.7285 54.6456 46.4637V49.7438C54.5386 53.3805 57.8188 56.3397 61.8477 56.2328Z" stroke="#D71638" stroke-miterlimit="10" />
    <path d="M52.6132 32.6299V25.6775C52.6132 20.6146 43.4502 17.9406 37.8883 17.9406C32.3263 17.9406 23.2703 20.5433 23.2703 25.6775V32.5943" stroke="#D71638" stroke-miterlimit="10" />
    <path d="M37.9596 16.7284C41.9885 16.8354 45.3043 13.8761 45.1617 10.2395V6.95932C45.1617 -1.77583 30.7576 -1.77583 30.7576 6.95932V10.2395C30.615 13.9118 33.9308 16.871 37.9596 16.7284Z" stroke="#D71638" stroke-miterlimit="10" />
    <path d="M51.6149 81.3329C47.4078 83.1156 42.8084 84.0782 37.9595 84.0782C33.1106 84.0782 28.5113 83.0799 24.3042 81.3329" stroke="#D71638" stroke-miterlimit="10" />
    <path d="M55.8579 10.7029C59.9224 12.7709 63.4878 15.6231 66.447 19.0102C69.3706 22.3973 71.6881 26.3549 73.1499 30.669" stroke="#D71638" stroke-miterlimit="10" />
    <path d="M19.7764 10.7029C15.7119 12.7709 12.1465 15.6231 9.18725 19.0102C6.228 22.3973 3.98182 26.3549 2.52002 30.669" stroke="#D71638" stroke-miterlimit="10" />
  </g>
  <defs>
    <clipPath id="clip0">
      <rect width="75.8353" height="84" fill="white" transform="translate(0.879883 0.25647)" />
    </clipPath>
  </defs>
</svg>