<?xml version="1.0" encoding="utf-8"?>
<svg width="83" height="81" viewBox="0 0 83 81" fill="none" xmlns="http://www.w3.org/2000/svg">
  <path d="M0.960449 70.4638L7.62712 66.0888C9.08545 65.0471 10.9604 65.2554 12.4188 66.2971L14.9188 68.3804C16.3771 69.6304 18.2521 69.6304 19.7104 68.5888L23.4604 66.0888C24.9188 65.0471 26.7938 65.2554 28.2521 66.2971L30.9604 68.7971C32.4188 69.8388 34.2938 70.0471 35.7521 68.7971L39.0855 66.2971C40.5438 65.2554 42.4188 65.2554 43.8771 66.2971L47.0021 68.7971C48.4604 69.8388 50.3354 69.8388 51.7938 68.7971L54.9188 66.2971C56.3771 65.2554 58.2521 65.2554 59.7104 66.2971L63.2521 68.7971C64.7104 69.8388 66.5854 69.8388 68.0438 68.5888L70.7521 66.2971C72.0021 65.2554 74.0854 65.0471 75.5438 66.0888L82.0021 70.4638" stroke="#D71638" stroke-miterlimit="8" />
  <path d="M0.960449 80.464L7.62712 76.2974C9.08545 75.2557 10.9604 75.464 12.4188 76.5057L14.9188 78.3807C16.3771 79.4224 18.2521 79.6307 19.7104 78.589L23.4604 76.2974C24.9188 75.2557 26.7938 75.464 28.2521 76.5057L30.9604 78.589C32.4188 79.6307 34.2938 79.6307 35.7521 78.7973L39.0855 76.5057C40.5438 75.464 42.4188 75.464 43.8771 76.5057L47.0021 78.589C48.4604 79.6307 50.3354 79.6307 51.7938 78.589L54.9188 76.5057C56.3771 75.464 58.2521 75.464 59.7104 76.2974L63.2521 78.589C64.7104 79.6307 66.5854 79.6307 68.0438 78.3807L70.7521 76.2974C72.0021 75.2557 74.0854 75.0474 75.5438 76.089L82.0021 80.2557" stroke="#D71638" stroke-miterlimit="8" />
  <path d="M27.8353 45.2555L4.91865 21.9222C4.29365 21.2972 4.29365 20.2555 4.71031 19.4222C5.54365 18.5888 6.79365 18.3805 7.83531 19.0055L28.252 32.7555" stroke="#D71638" stroke-miterlimit="8" />
  <path d="M25.9604 56.0887V66.9221M36.7938 68.5887V56.0887V68.5887Z" stroke="#D71638" stroke-miterlimit="8" />
  <path d="M56.377 56.0887V66.9221M67.2103 68.5887V56.0887V68.5887Z" stroke="#D71638" stroke-miterlimit="8" />
  <path d="M9.71045 20.0472H29.5021" stroke="#D71638" stroke-miterlimit="8" />
  <path d="M58.252 25.2555V12.7555" stroke="#D71638" stroke-miterlimit="8" />
  <path d="M65.5439 25.2555V0.463867" stroke="#D71638" stroke-miterlimit="8" />
  <path d="M15.3354 48.5889H77.8354V56.0889H15.3354V48.5889V48.5889Z" stroke="#D71638" stroke-miterlimit="8" />
  <path d="M49.0853 32.7556L42.002 7.54724H38.4603L31.377 32.7556" stroke="#D71638" stroke-miterlimit="8" />
  <path d="M72.2104 48.5888V32.7555H27.8354V48.5888" stroke="#D71638" stroke-miterlimit="8" />
  <path d="M49.0856 41.714H43.6689" stroke="#D71638" stroke-miterlimit="8" />
  <path d="M58.252 41.714H52.627" stroke="#D71638" stroke-miterlimit="8" />
  <path d="M67.2106 41.714H61.7939" stroke="#D71638" stroke-miterlimit="8" />
  <path d="M6.16895 23.797V57.547" stroke="#D71638" stroke-miterlimit="8" />
  <path d="M54.502 29.4222V25.2555H69.0853V29.4222" stroke="#D71638" stroke-miterlimit="8" />
</svg>